<svg xmlns="http://www.w3.org/2000/svg" viewBox="0 0 129.59 99">
    <defs>
        <style>
            .cls-1{fill:none;stroke:#fff;stroke-linecap:round;stroke-miterlimit:10;stroke-width:3px}
        </style>
    </defs>
    <g id="Layer_2" data-name="Layer 2">
        <g id="Layer_1-2" data-name="Layer 1">
            <path d="M105.42 97.5a22.66 22.66 0 0 0 22.16-27.4L114 6.38a5.45 5.45 0 0 0-5.41-4.88h-86.8a5.44 5.44 0 0 0-5.41 4.88L2.06 70.05A22.51 22.51 0 0 0 24 97.5a22.5 22.5 0 0 0 21.56-16l8.06-26.86a11.5 11.5 0 0 1 11-8.2 11.51 11.51 0 0 1 11 8.2l8 26.76a22.67 22.67 0 0 0 21.8 16.1zM93.55 19v24M105.55 31h-24" class="cls-1"/>
            <circle cx="35.22" cy="31" r="12" class="cls-1"/>
        </g>
    </g>
</svg>
